<svg version="1.1" xmlns="http://www.w3.org/2000/svg" viewBox="-286.719998550415 -1046.5280639648438 1939.4560302734376 1353.7280639648438"><desc>Created with Snap</desc><defs></defs><g><g><g transform="matrix(1.024,0,0,-1.024,0,0)"><path d="M328 170Q282 271 246 365Q211 460 186 534Q163 410 147 284Q132 158 108 43Q102 17 86 8Q70 0 59 0Q41 0 30 11Q20 22 20 39Q20 62 25 109Q31 157 39 217Q48 277 59 343Q70 409 81 470Q93 532 103 582Q114 632 122 659Q135 705 175 705Q199 705 216 681Q233 658 252 609Q272 561 299 487Q327 413 371 313Q414 413 440 486Q467 560 485 608Q504 657 521 680Q538 704 563 704Q586 704 598 692Q610 681 616 658Q623 630 633 580Q643 531 654 470Q666 410 677 344Q688 278 697 218Q706 158 711 109Q717 61 717 35Q717 19 706 9Q695 0 678 0Q667 0 651 8Q635 17 629 43Q617 100 607 161Q598 222 589 284Q581 347 573 409Q565 472 556 534Q543 494 526 446Q509 398 490 349Q471 301 451 254Q431 207 412 169Q405 156 393 149Q382 143 370 143Q357 143 345 149Q334 156 328 170ZM1216 51Q1206 75 1194 106Q1183 138 1170 173Q1140 172 1107 171Q1074 171 1040 171Q997 171 962 171Q927 171 898 172Q886 137 875 106Q864 75 854 51Q834 0 796 0Q782 0 769 9Q757 18 757 35Q757 52 763 79Q769 107 778 138Q788 170 799 203Q810 237 820 266Q830 298 848 347Q867 397 888 451Q909 505 930 557Q951 610 968 649Q972 659 978 671Q984 684 992 695Q1001 706 1011 714Q1022 722 1035 722Q1048 722 1059 713Q1070 705 1078 693Q1087 681 1093 668Q1100 655 1104 645Q1120 605 1140 553Q1161 501 1181 448Q1202 395 1220 347Q1238 299 1249 266Q1258 237 1269 204Q1281 171 1291 139Q1301 107 1307 79Q1314 52 1314 35Q1314 18 1301 9Q1289 0 1275 0Q1257 0 1242 12Q1227 25 1216 51ZM1039 271Q1063 271 1087 270Q1111 270 1135 269Q1123 304 1111 339Q1099 374 1088 406Q1078 438 1069 465Q1061 493 1055 514Q1051 527 1046 535Q1041 543 1033 543Q1025 543 1020 534Q1015 526 1011 513Q999 472 977 406Q956 341 932 269Q959 270 986 270Q1013 271 1039 271Z" fill="#8a0059" style=""></path></g></g></g></svg>